<svg xmlns="http://www.w3.org/2000/svg" width="560" height="300" viewBox="0 0 560 300" role="img" aria-label="LiveChat">
  <path d="M52 34h456c24 0 44 20 44 44v114c0 24-20 44-44 44H218L105 292v-56H52c-24 0-44-20-44-44V78c0-24 20-44 44-44Z" fill="#fff"/>
  <path d="M52 34h456c24 0 44 20 44 44v114c0 24-20 44-44 44H218L105 292v-56H52c-24 0-44-20-44-44V78c0-24 20-44 44-44Z" fill="none" stroke="#3f3f3f" stroke-width="18" stroke-linejoin="round"/>
  <text x="78" y="164" font-family="Arial, Helvetica, sans-serif" font-size="86" font-weight="900" fill="#3f3f3f">Live</text>
  <text x="274" y="164" font-family="Arial, Helvetica, sans-serif" font-size="86" font-weight="900" fill="#ff6a00">Chat</text>
</svg>
